<svg width="48" height="49" viewBox="0 0 48 49" fill="none" xmlns="http://www.w3.org/2000/svg">
<path d="M47.9635 5.04825V44.768C47.9363 44.8215 47.8959 44.8722 47.8837 44.9285C47.3731 47.3332 45.4762 48.8876 43.0161 48.8885C30.325 48.8913 17.633 48.8913 4.942 48.8838C4.50929 48.8838 4.06533 48.8397 3.6467 48.7355C1.44189 48.1817 0.00205496 46.2641 0.00111634 43.9007C0.000177726 31.2405 0.000177726 18.5804 0.000177726 5.92023C0.000177726 5.77944 -0.00169951 5.63865 0.00674804 5.49879C0.0884077 4.15562 0.650639 3.04711 1.639 2.14134C2.35047 1.49087 3.21682 1.17174 4.12258 0.926758C17.3627 0.926758 30.6028 0.926758 43.842 0.926758C43.9106 0.955855 43.9772 0.998093 44.0485 1.01217C45.1908 1.24495 46.1201 1.82127 46.8719 2.71108C47.4491 3.39534 47.7288 4.20912 47.9635 5.04825ZM40.7427 41.6705C40.7502 41.5307 40.7596 41.4387 40.7596 41.3467C40.7596 36.9136 40.7803 32.4795 40.753 28.0464C40.7352 25.1216 39.4596 22.8023 37.0821 21.1419C34.5169 19.3491 31.3359 18.9887 28.5003 20.9354C27.7438 21.4544 27.0971 22.134 26.3922 22.7469V20.1469H19.2334V41.663H26.3847V41.0886C26.3847 37.2167 26.3847 33.3459 26.3866 29.474C26.3866 29.1624 26.396 28.8489 26.426 28.5392C26.6269 26.4582 28.9396 24.9255 30.9295 25.5487C32.5937 26.0706 33.5642 27.4241 33.567 29.261C33.5726 33.2107 33.5689 37.1604 33.5689 41.1092C33.5689 41.2913 33.5689 41.4725 33.5689 41.6705H40.7427ZM14.3591 41.6705V20.1535H7.23504V41.6705H14.3591ZM15.095 11.7247C15.0997 9.34433 13.1577 7.39481 10.7868 7.40138C8.41676 7.40795 6.45317 9.38 6.47476 11.7331C6.49541 14.1041 8.4008 16.0048 10.7708 16.0208C13.1558 16.0367 15.0903 14.1154 15.095 11.7247Z" fill="#F3F3F3"/>
</svg>
