<svg width="50" height="45" viewBox="0 0 50 45" fill="none" xmlns="http://www.w3.org/2000/svg">
<path d="M49.8568 44.9797C49.7338 44.9867 49.665 44.994 49.596 44.994C44.6246 44.9946 39.6534 44.994 34.682 44.9968C34.5407 44.9968 34.4472 44.9585 34.358 44.8423C32.1036 41.9061 29.8452 38.9729 27.5874 36.0394C25.9168 33.8689 24.2457 31.6987 22.5747 29.5284C22.5272 29.4669 22.4769 29.4075 22.4195 29.3368C22.3687 29.3902 22.3242 29.4342 22.2829 29.481C18.547 33.7224 14.8112 37.9642 11.0755 42.2058C10.2971 43.0895 9.51688 43.9712 8.74199 44.8579C8.65341 44.9594 8.56203 44.9972 8.42851 44.997C6.02171 44.9933 3.61471 44.9944 1.20791 44.9944H1.05139C1.03569 44.973 1.02967 44.9677 1.02774 44.9613C1.0258 44.9551 1.02559 44.9453 1.02924 44.9412C6.96237 38.1952 12.8957 31.4496 18.8433 24.6879C12.5702 16.5371 6.29929 8.3889 0 0.203923C0.120189 0.199436 0.201032 0.193881 0.28209 0.193881C1.8796 0.193454 3.47689 0.193454 5.07439 0.193454C8.54848 0.193454 12.0228 0.195163 15.4969 0.188967C15.6968 0.18854 15.819 0.24708 15.9404 0.406891C19.4608 5.0412 22.9869 9.67145 26.5119 14.3023C26.5588 14.3639 26.608 14.4237 26.6678 14.4989C26.7327 14.4278 26.7858 14.3718 26.8368 14.3139C30.2322 10.4573 33.6274 6.60043 37.0226 2.74359C37.7252 1.94539 38.4294 1.14869 39.129 0.347924C39.2193 0.244516 39.3096 0.190035 39.4558 0.190463C41.8626 0.195163 44.2696 0.193667 46.6764 0.194095C46.7329 0.194095 46.7895 0.199009 46.8424 0.201573C46.8486 0.215674 46.8523 0.221656 46.8538 0.228279C46.8553 0.234689 46.8568 0.242594 46.8542 0.247935C46.8482 0.260754 46.8413 0.273573 46.8321 0.284042C41.2958 6.57244 35.7594 12.8604 30.2079 19.1655C31.8454 21.3169 33.4812 23.4661 35.1172 25.6152C36.7545 27.766 38.3919 29.9168 40.0294 32.0674C41.6624 34.2125 43.2965 36.3571 44.9284 38.5028C46.5618 40.6505 48.1984 42.7957 49.8568 44.9797ZM8.92754 4.50494C8.99269 4.59339 9.03655 4.65492 9.08256 4.71474C10.5311 6.59722 11.9796 8.4797 13.4285 10.3618C15.8435 13.4986 18.2586 16.6352 20.6736 19.7722C22.6491 22.3382 24.6242 24.9046 26.5994 27.4707C28.8097 30.3422 31.02 33.2135 33.23 36.0849C34.3135 37.4923 35.3973 38.8994 36.4784 40.3084C36.5489 40.4003 36.6196 40.4466 36.7435 40.4462C38.04 40.4411 39.3367 40.4432 40.6332 40.4424C40.6844 40.4424 40.7357 40.4306 40.8073 40.4216C40.7347 40.3238 40.6805 40.249 40.6246 40.1757C38.4995 37.3831 36.3741 34.5907 34.2485 31.7982C30.3818 26.7187 26.5152 21.6393 22.6485 16.5598C19.6287 12.5927 16.6085 8.62584 13.5919 4.6562C13.5001 4.53527 13.4051 4.48763 13.2535 4.48827C11.8925 4.4934 10.5313 4.49105 9.17028 4.49169C9.10148 4.49169 9.03268 4.49895 8.92711 4.50494H8.92754Z" fill="#F3F3F3"/>
</svg>
